<mxfile host="app.diagrams.net" modified="2021-05-19T15:44:03.310Z" agent="5.0 (Windows)" etag="j5uo_Hf_jTXEmeDY-KAT" version="14.6.13" type="github" pages="5">
  <diagram name="Plantilla" id="13e1069c-82ec-6db2-03f1-153e76fe0fe0">
    <mxGraphModel dx="1278" dy="547" grid="1" gridSize="10" guides="1" tooltips="1" connect="1" arrows="1" fold="1" page="1" pageScale="1" pageWidth="1100" pageHeight="850" background="#ffffff" math="0" shadow="0">
      <root>
        <mxCell id="0" />
        <mxCell id="1" parent="0" />
        <mxCell id="7baba1c4bc27f4b0-2" value=":Object" style="shape=umlLifeline;perimeter=lifelinePerimeter;whiteSpace=wrap;html=1;container=1;collapsible=0;recursiveResize=0;outlineConnect=0;rounded=1;shadow=0;comic=0;labelBackgroundColor=none;strokeWidth=1;fontFamily=Verdana;fontSize=12;align=center;fillColor=#dae8fc;strokeColor=#6c8ebf;" parent="1" vertex="1">
          <mxGeometry x="240" y="80" width="100" height="580" as="geometry" />
        </mxCell>
        <mxCell id="7baba1c4bc27f4b0-10" value="" style="html=1;points=[];perimeter=orthogonalPerimeter;rounded=0;shadow=0;comic=0;labelBackgroundColor=none;strokeWidth=1;fontFamily=Verdana;fontSize=12;align=center;fillColor=#dae8fc;strokeColor=#6c8ebf;" parent="7baba1c4bc27f4b0-2" vertex="1">
          <mxGeometry x="45" y="100" width="10" height="230" as="geometry" />
        </mxCell>
        <mxCell id="7baba1c4bc27f4b0-3" value=":Object" style="shape=umlLifeline;perimeter=lifelinePerimeter;whiteSpace=wrap;html=1;container=1;collapsible=0;recursiveResize=0;outlineConnect=0;rounded=1;shadow=0;comic=0;labelBackgroundColor=none;strokeWidth=1;fontFamily=Verdana;fontSize=12;align=center;fillColor=#dae8fc;strokeColor=#6c8ebf;" parent="1" vertex="1">
          <mxGeometry x="400" y="80" width="100" height="580" as="geometry" />
        </mxCell>
        <mxCell id="7baba1c4bc27f4b0-13" value="" style="html=1;points=[];perimeter=orthogonalPerimeter;rounded=0;shadow=0;comic=0;labelBackgroundColor=none;strokeWidth=1;fontFamily=Verdana;fontSize=12;align=center;fillColor=#dae8fc;strokeColor=#6c8ebf;" parent="7baba1c4bc27f4b0-3" vertex="1">
          <mxGeometry x="45" y="120" width="10" height="200" as="geometry" />
        </mxCell>
        <mxCell id="7baba1c4bc27f4b0-4" value=":Object" style="shape=umlLifeline;perimeter=lifelinePerimeter;whiteSpace=wrap;html=1;container=1;collapsible=0;recursiveResize=0;outlineConnect=0;rounded=1;shadow=0;comic=0;labelBackgroundColor=none;strokeWidth=1;fontFamily=Verdana;fontSize=12;align=center;fillColor=#dae8fc;strokeColor=#6c8ebf;" parent="1" vertex="1">
          <mxGeometry x="540" y="80" width="100" height="580" as="geometry" />
        </mxCell>
        <mxCell id="7baba1c4bc27f4b0-5" value=":Object" style="shape=umlLifeline;perimeter=lifelinePerimeter;whiteSpace=wrap;html=1;container=1;collapsible=0;recursiveResize=0;outlineConnect=0;rounded=1;shadow=0;comic=0;labelBackgroundColor=none;strokeWidth=1;fontFamily=Verdana;fontSize=12;align=center;fillColor=#dae8fc;strokeColor=#6c8ebf;" parent="1" vertex="1">
          <mxGeometry x="680" y="80" width="100" height="580" as="geometry" />
        </mxCell>
        <mxCell id="7baba1c4bc27f4b0-6" value=":Object" style="shape=umlLifeline;perimeter=lifelinePerimeter;whiteSpace=wrap;html=1;container=1;collapsible=0;recursiveResize=0;outlineConnect=0;rounded=1;shadow=0;comic=0;labelBackgroundColor=none;strokeWidth=1;fontFamily=Verdana;fontSize=12;align=center;fillColor=#dae8fc;strokeColor=#6c8ebf;" parent="1" vertex="1">
          <mxGeometry x="820" y="80" width="100" height="580" as="geometry" />
        </mxCell>
        <mxCell id="7baba1c4bc27f4b0-7" value=":Object" style="shape=umlLifeline;perimeter=lifelinePerimeter;whiteSpace=wrap;html=1;container=1;collapsible=0;recursiveResize=0;outlineConnect=0;rounded=1;shadow=0;comic=0;labelBackgroundColor=none;strokeWidth=1;fontFamily=Verdana;fontSize=12;align=center;fillColor=#dae8fc;strokeColor=#6c8ebf;" parent="1" vertex="1">
          <mxGeometry x="960" y="80" width="100" height="580" as="geometry" />
        </mxCell>
        <mxCell id="7baba1c4bc27f4b0-8" value=":Object" style="shape=umlLifeline;perimeter=lifelinePerimeter;whiteSpace=wrap;html=1;container=1;collapsible=0;recursiveResize=0;outlineConnect=0;rounded=1;shadow=0;comic=0;labelBackgroundColor=none;strokeWidth=1;fontFamily=Verdana;fontSize=12;align=center;fillColor=#dae8fc;strokeColor=#6c8ebf;" parent="1" vertex="1">
          <mxGeometry x="100" y="80" width="100" height="580" as="geometry" />
        </mxCell>
        <mxCell id="7baba1c4bc27f4b0-9" value="" style="html=1;points=[];perimeter=orthogonalPerimeter;rounded=0;shadow=0;comic=0;labelBackgroundColor=none;strokeWidth=1;fontFamily=Verdana;fontSize=12;align=center;fillColor=#dae8fc;strokeColor=#6c8ebf;" parent="7baba1c4bc27f4b0-8" vertex="1">
          <mxGeometry x="45" y="100" width="10" height="440" as="geometry" />
        </mxCell>
        <mxCell id="7baba1c4bc27f4b0-16" value="" style="html=1;points=[];perimeter=orthogonalPerimeter;rounded=0;shadow=0;comic=0;labelBackgroundColor=none;strokeWidth=1;fontFamily=Verdana;fontSize=12;align=center;fillColor=#dae8fc;strokeColor=#6c8ebf;" parent="1" vertex="1">
          <mxGeometry x="585" y="220" width="10" height="180" as="geometry" />
        </mxCell>
        <mxCell id="7baba1c4bc27f4b0-17" value="dispatch" style="html=1;verticalAlign=bottom;endArrow=block;labelBackgroundColor=none;fontFamily=Verdana;fontSize=12;edgeStyle=elbowEdgeStyle;elbow=vertical;fillColor=#dae8fc;strokeColor=#6c8ebf;" parent="1" source="7baba1c4bc27f4b0-13" target="7baba1c4bc27f4b0-16" edge="1">
          <mxGeometry relative="1" as="geometry">
            <mxPoint x="510" y="220" as="sourcePoint" />
            <Array as="points">
              <mxPoint x="460" y="220" />
            </Array>
          </mxGeometry>
        </mxCell>
        <mxCell id="7baba1c4bc27f4b0-19" value="" style="html=1;points=[];perimeter=orthogonalPerimeter;rounded=0;shadow=0;comic=0;labelBackgroundColor=none;strokeWidth=1;fontFamily=Verdana;fontSize=12;align=center;fillColor=#dae8fc;strokeColor=#6c8ebf;" parent="1" vertex="1">
          <mxGeometry x="725" y="230" width="10" height="40" as="geometry" />
        </mxCell>
        <mxCell id="7baba1c4bc27f4b0-20" value="dispatch" style="html=1;verticalAlign=bottom;endArrow=block;entryX=0;entryY=0;labelBackgroundColor=none;fontFamily=Verdana;fontSize=12;edgeStyle=elbowEdgeStyle;elbow=vertical;fillColor=#dae8fc;strokeColor=#6c8ebf;" parent="1" source="7baba1c4bc27f4b0-16" target="7baba1c4bc27f4b0-19" edge="1">
          <mxGeometry relative="1" as="geometry">
            <mxPoint x="650" y="230" as="sourcePoint" />
          </mxGeometry>
        </mxCell>
        <mxCell id="7baba1c4bc27f4b0-21" value="return" style="html=1;verticalAlign=bottom;endArrow=open;dashed=1;endSize=8;labelBackgroundColor=none;fontFamily=Verdana;fontSize=12;edgeStyle=elbowEdgeStyle;elbow=vertical;fillColor=#dae8fc;strokeColor=#6c8ebf;" parent="1" source="7baba1c4bc27f4b0-19" target="7baba1c4bc27f4b0-16" edge="1">
          <mxGeometry relative="1" as="geometry">
            <mxPoint x="650" y="306" as="targetPoint" />
            <Array as="points">
              <mxPoint x="670" y="260" />
              <mxPoint x="700" y="260" />
            </Array>
          </mxGeometry>
        </mxCell>
        <mxCell id="7baba1c4bc27f4b0-22" value="" style="html=1;points=[];perimeter=orthogonalPerimeter;rounded=0;shadow=0;comic=0;labelBackgroundColor=none;strokeWidth=1;fontFamily=Verdana;fontSize=12;align=center;fillColor=#dae8fc;strokeColor=#6c8ebf;" parent="1" vertex="1">
          <mxGeometry x="585" y="440" width="10" height="140" as="geometry" />
        </mxCell>
        <mxCell id="7baba1c4bc27f4b0-23" value="dispatch" style="html=1;verticalAlign=bottom;endArrow=block;entryX=0;entryY=0;labelBackgroundColor=none;fontFamily=Verdana;fontSize=12;fillColor=#dae8fc;strokeColor=#6c8ebf;" parent="1" source="7baba1c4bc27f4b0-9" target="7baba1c4bc27f4b0-22" edge="1">
          <mxGeometry relative="1" as="geometry">
            <mxPoint x="510" y="420" as="sourcePoint" />
          </mxGeometry>
        </mxCell>
        <mxCell id="7baba1c4bc27f4b0-25" value="" style="html=1;points=[];perimeter=orthogonalPerimeter;rounded=0;shadow=0;comic=0;labelBackgroundColor=none;strokeColor=#6c8ebf;strokeWidth=1;fillColor=#dae8fc;fontFamily=Verdana;fontSize=12;align=center;" parent="1" vertex="1">
          <mxGeometry x="1005" y="460" width="10" height="30" as="geometry" />
        </mxCell>
        <mxCell id="7baba1c4bc27f4b0-26" value="dispatch" style="html=1;verticalAlign=bottom;endArrow=block;entryX=0;entryY=0;labelBackgroundColor=none;fontFamily=Verdana;fontSize=12;fillColor=#dae8fc;strokeColor=#6c8ebf;" parent="1" source="7baba1c4bc27f4b0-22" target="7baba1c4bc27f4b0-25" edge="1">
          <mxGeometry relative="1" as="geometry">
            <mxPoint x="930" y="340" as="sourcePoint" />
          </mxGeometry>
        </mxCell>
        <mxCell id="7baba1c4bc27f4b0-27" value="return" style="html=1;verticalAlign=bottom;endArrow=open;dashed=1;endSize=8;exitX=0;exitY=0.95;labelBackgroundColor=none;fontFamily=Verdana;fontSize=12;fillColor=#dae8fc;strokeColor=#6c8ebf;" parent="1" source="7baba1c4bc27f4b0-25" target="7baba1c4bc27f4b0-22" edge="1">
          <mxGeometry relative="1" as="geometry">
            <mxPoint x="930" y="416" as="targetPoint" />
          </mxGeometry>
        </mxCell>
        <mxCell id="7baba1c4bc27f4b0-28" value="" style="html=1;points=[];perimeter=orthogonalPerimeter;rounded=0;shadow=0;comic=0;labelBackgroundColor=none;strokeWidth=1;fontFamily=Verdana;fontSize=12;align=center;fillColor=#dae8fc;strokeColor=#6c8ebf;" parent="1" vertex="1">
          <mxGeometry x="870" y="550" width="10" height="60" as="geometry" />
        </mxCell>
        <mxCell id="7baba1c4bc27f4b0-29" value="dispatch" style="html=1;verticalAlign=bottom;endArrow=block;entryX=0;entryY=0;labelBackgroundColor=none;fontFamily=Verdana;fontSize=12;edgeStyle=elbowEdgeStyle;elbow=vertical;fillColor=#dae8fc;strokeColor=#6c8ebf;" parent="1" source="7baba1c4bc27f4b0-37" target="7baba1c4bc27f4b0-28" edge="1">
          <mxGeometry relative="1" as="geometry">
            <mxPoint x="800" y="550" as="sourcePoint" />
          </mxGeometry>
        </mxCell>
        <mxCell id="7baba1c4bc27f4b0-30" value="return" style="html=1;verticalAlign=bottom;endArrow=open;dashed=1;endSize=8;labelBackgroundColor=none;fontFamily=Verdana;fontSize=12;edgeStyle=elbowEdgeStyle;elbow=vertical;fillColor=#dae8fc;strokeColor=#6c8ebf;" parent="1" source="7baba1c4bc27f4b0-28" target="7baba1c4bc27f4b0-9" edge="1">
          <mxGeometry relative="1" as="geometry">
            <mxPoint x="800" y="626" as="targetPoint" />
            <Array as="points">
              <mxPoint x="570" y="600" />
            </Array>
          </mxGeometry>
        </mxCell>
        <mxCell id="7baba1c4bc27f4b0-11" value="dispatch" style="html=1;verticalAlign=bottom;endArrow=block;entryX=0;entryY=0;labelBackgroundColor=none;fontFamily=Verdana;fontSize=12;edgeStyle=elbowEdgeStyle;elbow=vertical;fillColor=#dae8fc;strokeColor=#6c8ebf;" parent="1" source="7baba1c4bc27f4b0-9" target="7baba1c4bc27f4b0-10" edge="1">
          <mxGeometry relative="1" as="geometry">
            <mxPoint x="220" y="190" as="sourcePoint" />
          </mxGeometry>
        </mxCell>
        <mxCell id="7baba1c4bc27f4b0-14" value="dispatch" style="html=1;verticalAlign=bottom;endArrow=block;entryX=0;entryY=0;labelBackgroundColor=none;fontFamily=Verdana;fontSize=12;edgeStyle=elbowEdgeStyle;elbow=vertical;fillColor=#dae8fc;strokeColor=#6c8ebf;" parent="1" source="7baba1c4bc27f4b0-10" target="7baba1c4bc27f4b0-13" edge="1">
          <mxGeometry relative="1" as="geometry">
            <mxPoint x="370" y="200" as="sourcePoint" />
          </mxGeometry>
        </mxCell>
        <mxCell id="7baba1c4bc27f4b0-34" value="" style="html=1;points=[];perimeter=orthogonalPerimeter;rounded=0;shadow=0;comic=0;labelBackgroundColor=none;strokeWidth=1;fontFamily=Verdana;fontSize=12;align=center;fillColor=#dae8fc;strokeColor=#6c8ebf;" parent="1" vertex="1">
          <mxGeometry x="590" y="300" width="10" height="70" as="geometry" />
        </mxCell>
        <mxCell id="7baba1c4bc27f4b0-35" value="dispatch" style="html=1;verticalAlign=bottom;endArrow=block;labelBackgroundColor=none;fontFamily=Verdana;fontSize=12;elbow=vertical;edgeStyle=orthogonalEdgeStyle;curved=1;entryX=1;entryY=0.286;entryPerimeter=0;exitX=1.038;exitY=0.345;exitPerimeter=0;fillColor=#dae8fc;strokeColor=#6c8ebf;" parent="1" source="7baba1c4bc27f4b0-16" target="7baba1c4bc27f4b0-34" edge="1">
          <mxGeometry relative="1" as="geometry">
            <mxPoint x="465" y="230" as="sourcePoint" />
            <mxPoint x="595" y="230" as="targetPoint" />
            <Array as="points">
              <mxPoint x="650" y="282" />
              <mxPoint x="650" y="320" />
            </Array>
          </mxGeometry>
        </mxCell>
        <mxCell id="7baba1c4bc27f4b0-36" value="dispatch" style="html=1;verticalAlign=bottom;endArrow=block;labelBackgroundColor=none;fontFamily=Verdana;fontSize=12;elbow=vertical;edgeStyle=orthogonalEdgeStyle;curved=1;exitX=1.066;exitY=0.713;exitPerimeter=0;fillColor=#dae8fc;strokeColor=#6c8ebf;" parent="1" source="7baba1c4bc27f4b0-34" edge="1">
          <mxGeometry relative="1" as="geometry">
            <mxPoint x="610.3333333333333" y="350" as="sourcePoint" />
            <mxPoint x="595" y="389" as="targetPoint" />
            <Array as="points">
              <mxPoint x="650" y="350" />
              <mxPoint x="650" y="389" />
            </Array>
          </mxGeometry>
        </mxCell>
        <mxCell id="7baba1c4bc27f4b0-37" value="" style="html=1;points=[];perimeter=orthogonalPerimeter;rounded=0;shadow=0;comic=0;labelBackgroundColor=none;strokeWidth=1;fontFamily=Verdana;fontSize=12;align=center;fillColor=#dae8fc;strokeColor=#6c8ebf;" parent="1" vertex="1">
          <mxGeometry x="590" y="520" width="10" height="40" as="geometry" />
        </mxCell>
        <mxCell id="7baba1c4bc27f4b0-39" value="dispatch" style="html=1;verticalAlign=bottom;endArrow=block;labelBackgroundColor=none;fontFamily=Verdana;fontSize=12;elbow=vertical;edgeStyle=orthogonalEdgeStyle;curved=1;entryX=1;entryY=0.286;entryPerimeter=0;exitX=1.038;exitY=0.345;exitPerimeter=0;fillColor=#dae8fc;strokeColor=#6c8ebf;" parent="1" edge="1">
          <mxGeometry relative="1" as="geometry">
            <mxPoint x="595.3333333333335" y="501" as="sourcePoint" />
            <mxPoint x="600.3333333333335" y="539.3333333333334" as="targetPoint" />
            <Array as="points">
              <mxPoint x="650" y="501" />
              <mxPoint x="650" y="539" />
            </Array>
          </mxGeometry>
        </mxCell>
        <mxCell id="7baba1c4bc27f4b0-40" value="Note" style="shape=note;whiteSpace=wrap;html=1;size=14;verticalAlign=top;align=left;spacingTop=-6;rounded=0;shadow=0;comic=0;labelBackgroundColor=none;strokeWidth=1;fontFamily=Verdana;fontSize=12;fillColor=#dae8fc;strokeColor=#6c8ebf;" parent="1" vertex="1">
          <mxGeometry x="100" y="30" width="100" height="35" as="geometry" />
        </mxCell>
        <mxCell id="7baba1c4bc27f4b0-41" value="Note" style="shape=note;whiteSpace=wrap;html=1;size=14;verticalAlign=top;align=left;spacingTop=-6;rounded=0;shadow=0;comic=0;labelBackgroundColor=none;strokeWidth=1;fontFamily=Verdana;fontSize=12;fillColor=#dae8fc;strokeColor=#6c8ebf;" parent="1" vertex="1">
          <mxGeometry x="240" y="30" width="100" height="35" as="geometry" />
        </mxCell>
        <mxCell id="7baba1c4bc27f4b0-42" value="Note" style="shape=note;whiteSpace=wrap;html=1;size=14;verticalAlign=top;align=left;spacingTop=-6;rounded=0;shadow=0;comic=0;labelBackgroundColor=none;strokeWidth=1;fontFamily=Verdana;fontSize=12;fillColor=#dae8fc;strokeColor=#6c8ebf;" parent="1" vertex="1">
          <mxGeometry x="400" y="30" width="100" height="35" as="geometry" />
        </mxCell>
        <mxCell id="7baba1c4bc27f4b0-43" value="Note" style="shape=note;whiteSpace=wrap;html=1;size=14;verticalAlign=top;align=left;spacingTop=-6;rounded=0;shadow=0;comic=0;labelBackgroundColor=none;strokeWidth=1;fontFamily=Verdana;fontSize=12;fillColor=#dae8fc;strokeColor=#6c8ebf;" parent="1" vertex="1">
          <mxGeometry x="540" y="30" width="100" height="35" as="geometry" />
        </mxCell>
        <mxCell id="7baba1c4bc27f4b0-44" value="Note" style="shape=note;whiteSpace=wrap;html=1;size=14;verticalAlign=top;align=left;spacingTop=-6;rounded=0;shadow=0;comic=0;labelBackgroundColor=none;strokeWidth=1;fontFamily=Verdana;fontSize=12;fillColor=#dae8fc;strokeColor=#6c8ebf;" parent="1" vertex="1">
          <mxGeometry x="680" y="30" width="100" height="35" as="geometry" />
        </mxCell>
        <mxCell id="7baba1c4bc27f4b0-45" value="Note" style="shape=note;whiteSpace=wrap;html=1;size=14;verticalAlign=top;align=left;spacingTop=-6;rounded=0;shadow=0;comic=0;labelBackgroundColor=none;strokeWidth=1;fontFamily=Verdana;fontSize=12;fillColor=#dae8fc;strokeColor=#6c8ebf;" parent="1" vertex="1">
          <mxGeometry x="820" y="30" width="100" height="35" as="geometry" />
        </mxCell>
        <mxCell id="7baba1c4bc27f4b0-46" value="Note" style="shape=note;whiteSpace=wrap;html=1;size=14;verticalAlign=top;align=left;spacingTop=-6;rounded=0;shadow=0;comic=0;labelBackgroundColor=none;strokeWidth=1;fontFamily=Verdana;fontSize=12;fillColor=#dae8fc;strokeColor=#6c8ebf;" parent="1" vertex="1">
          <mxGeometry x="960" y="30" width="100" height="35" as="geometry" />
        </mxCell>
      </root>
    </mxGraphModel>
  </diagram>
  <diagram id="ce96vKwngloAwQ1dZxl3" name="Inicio de sesión">
    <mxGraphModel dx="1504" dy="644" grid="1" gridSize="10" guides="1" tooltips="1" connect="1" arrows="1" fold="1" page="1" pageScale="1" pageWidth="1000" pageHeight="1169" math="0" shadow="0">
      <root>
        <mxCell id="atkecwbkBqlZnpO5Pbow-0" />
        <mxCell id="atkecwbkBqlZnpO5Pbow-1" parent="atkecwbkBqlZnpO5Pbow-0" />
        <mxCell id="NpIZHxSUPUn8s1t4g-vy-0" value="" style="shape=umlLifeline;participant=umlActor;perimeter=lifelinePerimeter;whiteSpace=wrap;html=1;container=1;collapsible=0;recursiveResize=0;verticalAlign=top;spacingTop=36;outlineConnect=0;fillColor=#dae8fc;strokeColor=#6c8ebf;" parent="atkecwbkBqlZnpO5Pbow-1" vertex="1">
          <mxGeometry x="90" y="80" width="20" height="400" as="geometry" />
        </mxCell>
        <mxCell id="NpIZHxSUPUn8s1t4g-vy-1" value="" style="html=1;points=[];perimeter=orthogonalPerimeter;fillColor=#dae8fc;strokeColor=#6c8ebf;" parent="NpIZHxSUPUn8s1t4g-vy-0" vertex="1">
          <mxGeometry x="5" y="70" width="10" height="330" as="geometry" />
        </mxCell>
        <mxCell id="U_TjV-nP07pWhMO7ot_1-0" value=": Interfaz" style="shape=umlLifeline;perimeter=lifelinePerimeter;whiteSpace=wrap;html=1;container=1;collapsible=0;recursiveResize=0;outlineConnect=0;fillColor=#dae8fc;strokeColor=#6c8ebf;" parent="atkecwbkBqlZnpO5Pbow-1" vertex="1">
          <mxGeometry x="240" y="80" width="100" height="400" as="geometry" />
        </mxCell>
        <mxCell id="U_TjV-nP07pWhMO7ot_1-1" value="" style="rounded=0;whiteSpace=wrap;html=1;strokeColor=none;" parent="atkecwbkBqlZnpO5Pbow-1" vertex="1">
          <mxGeometry x="65" y="120" width="70" height="20" as="geometry" />
        </mxCell>
        <mxCell id="NpIZHxSUPUn8s1t4g-vy-2" value="Auditor" style="text;html=1;align=center;verticalAlign=middle;whiteSpace=wrap;rounded=0;" parent="atkecwbkBqlZnpO5Pbow-1" vertex="1">
          <mxGeometry x="80" y="120" width="40" height="20" as="geometry" />
        </mxCell>
        <mxCell id="U_TjV-nP07pWhMO7ot_1-2" value=": Sistema" style="shape=umlLifeline;perimeter=lifelinePerimeter;whiteSpace=wrap;html=1;container=1;collapsible=0;recursiveResize=0;outlineConnect=0;fillColor=#dae8fc;strokeColor=#6c8ebf;" parent="atkecwbkBqlZnpO5Pbow-1" vertex="1">
          <mxGeometry x="500" y="80" width="100" height="400" as="geometry" />
        </mxCell>
        <mxCell id="U_TjV-nP07pWhMO7ot_1-5" value="" style="html=1;points=[];perimeter=orthogonalPerimeter;fillColor=#dae8fc;strokeColor=#6c8ebf;" parent="U_TjV-nP07pWhMO7ot_1-2" vertex="1">
          <mxGeometry x="45" y="125" width="10" height="115" as="geometry" />
        </mxCell>
        <mxCell id="U_TjV-nP07pWhMO7ot_1-3" value=": SGBD" style="shape=umlLifeline;perimeter=lifelinePerimeter;whiteSpace=wrap;html=1;container=1;collapsible=0;recursiveResize=0;outlineConnect=0;fillColor=#dae8fc;strokeColor=#6c8ebf;" parent="atkecwbkBqlZnpO5Pbow-1" vertex="1">
          <mxGeometry x="810" y="80" width="100" height="400" as="geometry" />
        </mxCell>
        <mxCell id="U_TjV-nP07pWhMO7ot_1-6" value="" style="html=1;points=[];perimeter=orthogonalPerimeter;fillColor=#dae8fc;strokeColor=#6c8ebf;" parent="U_TjV-nP07pWhMO7ot_1-3" vertex="1">
          <mxGeometry x="45" y="153.75" width="10" height="57.5" as="geometry" />
        </mxCell>
        <mxCell id="U_TjV-nP07pWhMO7ot_1-4" value="" style="html=1;points=[];perimeter=orthogonalPerimeter;fillColor=#dae8fc;strokeColor=#6c8ebf;" parent="atkecwbkBqlZnpO5Pbow-1" vertex="1">
          <mxGeometry x="285" y="170" width="10" height="210" as="geometry" />
        </mxCell>
        <mxCell id="tGmUgj7P646PKe-1eYer-0" value="1: iniciarSesión" style="html=1;verticalAlign=bottom;endArrow=block;labelBackgroundColor=none;fontFamily=Verdana;fontSize=8;edgeStyle=elbowEdgeStyle;elbow=vertical;entryX=-0.061;entryY=0.004;entryDx=0;entryDy=0;entryPerimeter=0;fillColor=#dae8fc;strokeColor=#6c8ebf;" parent="atkecwbkBqlZnpO5Pbow-1" target="U_TjV-nP07pWhMO7ot_1-4" edge="1">
          <mxGeometry relative="1" as="geometry">
            <mxPoint x="106" y="171" as="sourcePoint" />
            <mxPoint x="285" y="180" as="targetPoint" />
            <Array as="points">
              <mxPoint x="170" y="171" />
            </Array>
          </mxGeometry>
        </mxCell>
        <mxCell id="-nbamvFyIpkH7UjUAcIP-0" value="&lt;div style=&quot;font-size: 8px;&quot;&gt;1.1: EnviarCredenciales&lt;/div&gt;&lt;div style=&quot;font-size: 8px;&quot;&gt;(email, contraseña)&lt;br style=&quot;font-size: 8px;&quot;&gt;&lt;/div&gt;" style="html=1;verticalAlign=bottom;endArrow=block;labelBackgroundColor=none;fontFamily=Verdana;fontSize=8;edgeStyle=elbowEdgeStyle;elbow=vertical;entryX=-0.014;entryY=0.01;entryDx=0;entryDy=0;entryPerimeter=0;exitX=0.978;exitY=0.17;exitDx=0;exitDy=0;exitPerimeter=0;fillColor=#dae8fc;strokeColor=#6c8ebf;" parent="atkecwbkBqlZnpO5Pbow-1" source="U_TjV-nP07pWhMO7ot_1-4" target="U_TjV-nP07pWhMO7ot_1-5" edge="1">
          <mxGeometry relative="1" as="geometry">
            <mxPoint x="240" y="206" as="sourcePoint" />
            <mxPoint x="399" y="204" as="targetPoint" />
          </mxGeometry>
        </mxCell>
        <mxCell id="-nbamvFyIpkH7UjUAcIP-1" value="&lt;div style=&quot;font-size: 8px;&quot;&gt;&lt;font style=&quot;font-size: 8px;&quot;&gt;1.1.1: comprobarCredenciales&lt;/font&gt;&lt;/div&gt;&lt;div style=&quot;font-size: 8px;&quot;&gt;&lt;font style=&quot;font-size: 8px;&quot;&gt;(email, contraseña):boolean&lt;br style=&quot;font-size: 8px;&quot;&gt;&lt;/font&gt;&lt;/div&gt;" style="html=1;verticalAlign=bottom;endArrow=block;labelBackgroundColor=none;fontFamily=Verdana;fontSize=8;edgeStyle=elbowEdgeStyle;elbow=vertical;entryX=0.057;entryY=0.109;entryDx=0;entryDy=0;entryPerimeter=0;exitX=0.895;exitY=0.295;exitDx=0;exitDy=0;exitPerimeter=0;fillColor=#dae8fc;strokeColor=#6c8ebf;" parent="atkecwbkBqlZnpO5Pbow-1" source="U_TjV-nP07pWhMO7ot_1-5" target="U_TjV-nP07pWhMO7ot_1-6" edge="1">
          <mxGeometry relative="1" as="geometry">
            <mxPoint x="560" y="240" as="sourcePoint" />
            <mxPoint x="555" y="235" as="targetPoint" />
          </mxGeometry>
        </mxCell>
        <mxCell id="XKYfvoJv8917Pe6KQgpl-1" value="1.1.2: TRUE" style="html=1;verticalAlign=bottom;endArrow=open;dashed=1;endSize=8;fontSize=8;entryX=1.167;entryY=0.742;entryDx=0;entryDy=0;entryPerimeter=0;exitX=0.033;exitY=1.001;exitDx=0;exitDy=0;exitPerimeter=0;fillColor=#dae8fc;strokeColor=#6c8ebf;" parent="atkecwbkBqlZnpO5Pbow-1" source="U_TjV-nP07pWhMO7ot_1-6" target="U_TjV-nP07pWhMO7ot_1-5" edge="1">
          <mxGeometry relative="1" as="geometry">
            <mxPoint x="520" y="290" as="sourcePoint" />
            <mxPoint x="440" y="290" as="targetPoint" />
          </mxGeometry>
        </mxCell>
        <mxCell id="XKYfvoJv8917Pe6KQgpl-2" value="1.1.3: RedirectPaginaPrincipal" style="html=1;verticalAlign=bottom;endArrow=open;dashed=1;endSize=8;fontSize=8;exitX=0.067;exitY=0.997;exitDx=0;exitDy=0;exitPerimeter=0;fillColor=#dae8fc;strokeColor=#6c8ebf;" parent="atkecwbkBqlZnpO5Pbow-1" source="U_TjV-nP07pWhMO7ot_1-5" edge="1">
          <mxGeometry relative="1" as="geometry">
            <mxPoint x="393.65999999999997" y="320.9775" as="sourcePoint" />
            <mxPoint x="300" y="320" as="targetPoint" />
          </mxGeometry>
        </mxCell>
        <mxCell id="XKYfvoJv8917Pe6KQgpl-3" value="1.1.4: mostrarPaginaPrincipal" style="html=1;verticalAlign=bottom;endArrow=open;dashed=1;endSize=8;fontSize=8;entryX=1.1;entryY=0.697;entryDx=0;entryDy=0;entryPerimeter=0;exitX=0.033;exitY=0.995;exitDx=0;exitDy=0;exitPerimeter=0;fillColor=#dae8fc;strokeColor=#6c8ebf;" parent="atkecwbkBqlZnpO5Pbow-1" source="U_TjV-nP07pWhMO7ot_1-4" target="NpIZHxSUPUn8s1t4g-vy-1" edge="1">
          <mxGeometry relative="1" as="geometry">
            <mxPoint x="230.67000000000007" y="380.005" as="sourcePoint" />
            <mxPoint x="80.00000000000011" y="380.35" as="targetPoint" />
          </mxGeometry>
        </mxCell>
        <mxCell id="XKYfvoJv8917Pe6KQgpl-4" value="El auditor accede a la aplicación introduciendo unas credenciales correctas" style="shape=note2;boundedLbl=1;whiteSpace=wrap;html=1;size=19;verticalAlign=top;align=center;fontSize=8;fillColor=#dae8fc;strokeColor=#6c8ebf;" parent="atkecwbkBqlZnpO5Pbow-1" vertex="1">
          <mxGeometry x="800" y="400" width="120" height="80" as="geometry" />
        </mxCell>
      </root>
    </mxGraphModel>
  </diagram>
  <diagram id="HKtAwv6uDy5wmCNv4exS" name="Crear auditoría">
    <mxGraphModel dx="881" dy="377" grid="1" gridSize="10" guides="1" tooltips="1" connect="1" arrows="1" fold="1" page="1" pageScale="1" pageWidth="1000" pageHeight="1169" math="0" shadow="0">
      <root>
        <mxCell id="Ex-kThplXqhPvJWN1-xa-0" />
        <mxCell id="Ex-kThplXqhPvJWN1-xa-1" parent="Ex-kThplXqhPvJWN1-xa-0" />
        <mxCell id="Ex-kThplXqhPvJWN1-xa-2" value="" style="shape=umlLifeline;participant=umlActor;perimeter=lifelinePerimeter;whiteSpace=wrap;html=1;container=1;collapsible=0;recursiveResize=0;verticalAlign=top;spacingTop=36;outlineConnect=0;fillColor=#dae8fc;strokeColor=#6c8ebf;" parent="Ex-kThplXqhPvJWN1-xa-1" vertex="1">
          <mxGeometry x="90" y="80" width="20" height="400" as="geometry" />
        </mxCell>
        <mxCell id="Ex-kThplXqhPvJWN1-xa-3" value="" style="html=1;points=[];perimeter=orthogonalPerimeter;fillColor=#dae8fc;strokeColor=#6c8ebf;" parent="Ex-kThplXqhPvJWN1-xa-2" vertex="1">
          <mxGeometry x="5" y="70" width="10" height="330" as="geometry" />
        </mxCell>
        <mxCell id="Ex-kThplXqhPvJWN1-xa-4" value=": Interfaz" style="shape=umlLifeline;perimeter=lifelinePerimeter;whiteSpace=wrap;html=1;container=1;collapsible=0;recursiveResize=0;outlineConnect=0;fillColor=#dae8fc;strokeColor=#6c8ebf;" parent="Ex-kThplXqhPvJWN1-xa-1" vertex="1">
          <mxGeometry x="228" y="80" width="100" height="400" as="geometry" />
        </mxCell>
        <mxCell id="Ex-kThplXqhPvJWN1-xa-5" value="" style="rounded=0;whiteSpace=wrap;html=1;strokeColor=none;" parent="Ex-kThplXqhPvJWN1-xa-1" vertex="1">
          <mxGeometry x="65" y="120" width="70" height="20" as="geometry" />
        </mxCell>
        <mxCell id="Ex-kThplXqhPvJWN1-xa-6" value="Auditor" style="text;html=1;strokeColor=none;fillColor=none;align=center;verticalAlign=middle;whiteSpace=wrap;rounded=0;" parent="Ex-kThplXqhPvJWN1-xa-1" vertex="1">
          <mxGeometry x="80" y="120" width="40" height="20" as="geometry" />
        </mxCell>
        <mxCell id="Ex-kThplXqhPvJWN1-xa-7" value=": Sistema" style="shape=umlLifeline;perimeter=lifelinePerimeter;whiteSpace=wrap;html=1;container=1;collapsible=0;recursiveResize=0;outlineConnect=0;fillColor=#dae8fc;strokeColor=#6c8ebf;" parent="Ex-kThplXqhPvJWN1-xa-1" vertex="1">
          <mxGeometry x="500" y="80" width="100" height="400" as="geometry" />
        </mxCell>
        <mxCell id="Ex-kThplXqhPvJWN1-xa-8" value="" style="html=1;points=[];perimeter=orthogonalPerimeter;fillColor=#dae8fc;strokeColor=#6c8ebf;" parent="Ex-kThplXqhPvJWN1-xa-7" vertex="1">
          <mxGeometry x="45" y="125" width="10" height="115" as="geometry" />
        </mxCell>
        <mxCell id="Ex-kThplXqhPvJWN1-xa-9" value=": SGBD" style="shape=umlLifeline;perimeter=lifelinePerimeter;whiteSpace=wrap;html=1;container=1;collapsible=0;recursiveResize=0;outlineConnect=0;fillColor=#dae8fc;strokeColor=#6c8ebf;" parent="Ex-kThplXqhPvJWN1-xa-1" vertex="1">
          <mxGeometry x="810" y="80" width="110" height="400" as="geometry" />
        </mxCell>
        <mxCell id="Ex-kThplXqhPvJWN1-xa-10" value="" style="html=1;points=[];perimeter=orthogonalPerimeter;fillColor=#dae8fc;strokeColor=#6c8ebf;" parent="Ex-kThplXqhPvJWN1-xa-9" vertex="1">
          <mxGeometry x="50" y="153.75" width="10" height="57.5" as="geometry" />
        </mxCell>
        <mxCell id="Ex-kThplXqhPvJWN1-xa-18" value="&lt;div align=&quot;center&quot;&gt;El auditor deberá introducir nombre, versión y alcance de la auditoría, con posibilidad de añadir las limitaciones de esta y, a continuación, se le mostrará al usuario una página para empezar a insertar los datos en esa auditoría&lt;br&gt;&lt;/div&gt;" style="shape=note2;boundedLbl=1;whiteSpace=wrap;html=1;size=13;verticalAlign=top;align=center;fontSize=8;fillColor=#dae8fc;strokeColor=#6c8ebf;" parent="Ex-kThplXqhPvJWN1-xa-9" vertex="1">
          <mxGeometry x="-10" y="290" width="120" height="110" as="geometry" />
        </mxCell>
        <mxCell id="Ex-kThplXqhPvJWN1-xa-11" value="" style="html=1;points=[];perimeter=orthogonalPerimeter;fillColor=#dae8fc;strokeColor=#6c8ebf;" parent="Ex-kThplXqhPvJWN1-xa-1" vertex="1">
          <mxGeometry x="273" y="170" width="10" height="210" as="geometry" />
        </mxCell>
        <mxCell id="Ex-kThplXqhPvJWN1-xa-12" value="1: nuevaAuditoría" style="html=1;verticalAlign=bottom;endArrow=block;labelBackgroundColor=none;fontFamily=Verdana;fontSize=8;edgeStyle=elbowEdgeStyle;elbow=vertical;entryX=-0.061;entryY=0.004;entryDx=0;entryDy=0;entryPerimeter=0;" parent="Ex-kThplXqhPvJWN1-xa-1" target="Ex-kThplXqhPvJWN1-xa-11" edge="1">
          <mxGeometry relative="1" as="geometry">
            <mxPoint x="105.99999999999977" y="171" as="sourcePoint" />
            <mxPoint x="285" y="180" as="targetPoint" />
            <Array as="points">
              <mxPoint x="170" y="171" />
            </Array>
          </mxGeometry>
        </mxCell>
        <mxCell id="Ex-kThplXqhPvJWN1-xa-13" value="&lt;div style=&quot;font-size: 8px&quot;&gt;1.1: introducirDatos(name, version, scope, limitations)&lt;br style=&quot;font-size: 8px&quot;&gt;&lt;/div&gt;" style="html=1;verticalAlign=bottom;endArrow=block;labelBackgroundColor=none;fontFamily=Verdana;fontSize=8;edgeStyle=elbowEdgeStyle;elbow=vertical;entryX=-0.014;entryY=0.01;entryDx=0;entryDy=0;entryPerimeter=0;exitX=0.978;exitY=0.17;exitDx=0;exitDy=0;exitPerimeter=0;" parent="Ex-kThplXqhPvJWN1-xa-1" source="Ex-kThplXqhPvJWN1-xa-11" target="Ex-kThplXqhPvJWN1-xa-8" edge="1">
          <mxGeometry relative="1" as="geometry">
            <mxPoint x="240" y="206" as="sourcePoint" />
            <mxPoint x="399" y="204" as="targetPoint" />
          </mxGeometry>
        </mxCell>
        <mxCell id="Ex-kThplXqhPvJWN1-xa-14" value="&lt;div style=&quot;font-size: 8px&quot;&gt;1.1.1: introducirDatos&lt;/div&gt;&lt;div style=&quot;font-size: 8px&quot;&gt;(name, start, version, scope, limitations, user): boolean&lt;br style=&quot;font-size: 8px&quot;&gt;&lt;/div&gt;" style="html=1;verticalAlign=bottom;endArrow=block;labelBackgroundColor=none;fontFamily=Verdana;fontSize=8;edgeStyle=elbowEdgeStyle;elbow=vertical;entryX=-0.019;entryY=0.1;entryDx=0;entryDy=0;entryPerimeter=0;exitX=0.981;exitY=0.3;exitDx=0;exitDy=0;exitPerimeter=0;" parent="Ex-kThplXqhPvJWN1-xa-1" source="Ex-kThplXqhPvJWN1-xa-8" target="Ex-kThplXqhPvJWN1-xa-10" edge="1">
          <mxGeometry relative="1" as="geometry">
            <mxPoint x="560" y="240" as="sourcePoint" />
            <mxPoint x="555" y="235" as="targetPoint" />
          </mxGeometry>
        </mxCell>
        <mxCell id="Ex-kThplXqhPvJWN1-xa-15" value="1.1.2: TRUE" style="html=1;verticalAlign=bottom;endArrow=open;dashed=1;endSize=8;fontSize=8;entryX=1.167;entryY=0.742;entryDx=0;entryDy=0;entryPerimeter=0;exitX=0.033;exitY=1.001;exitDx=0;exitDy=0;exitPerimeter=0;" parent="Ex-kThplXqhPvJWN1-xa-1" source="Ex-kThplXqhPvJWN1-xa-10" target="Ex-kThplXqhPvJWN1-xa-8" edge="1">
          <mxGeometry relative="1" as="geometry">
            <mxPoint x="520" y="290" as="sourcePoint" />
            <mxPoint x="440" y="290" as="targetPoint" />
          </mxGeometry>
        </mxCell>
        <mxCell id="Ex-kThplXqhPvJWN1-xa-16" value="1.1.3: crearAuditoría(name, start, version, scope, limitations, user)" style="html=1;verticalAlign=bottom;endArrow=open;dashed=1;endSize=8;fontSize=8;exitX=0.067;exitY=0.997;exitDx=0;exitDy=0;exitPerimeter=0;entryX=0.943;entryY=0.718;entryDx=0;entryDy=0;entryPerimeter=0;" parent="Ex-kThplXqhPvJWN1-xa-1" source="Ex-kThplXqhPvJWN1-xa-8" edge="1" target="Ex-kThplXqhPvJWN1-xa-11">
          <mxGeometry relative="1" as="geometry">
            <mxPoint x="393.65999999999997" y="320.9775" as="sourcePoint" />
            <mxPoint x="300" y="320" as="targetPoint" />
          </mxGeometry>
        </mxCell>
        <mxCell id="Ex-kThplXqhPvJWN1-xa-17" value="1.1.4: mostrarPaginaAuditoria" style="html=1;verticalAlign=bottom;endArrow=open;dashed=1;endSize=8;fontSize=8;entryX=1.1;entryY=0.697;entryDx=0;entryDy=0;entryPerimeter=0;exitX=0.033;exitY=0.995;exitDx=0;exitDy=0;exitPerimeter=0;" parent="Ex-kThplXqhPvJWN1-xa-1" source="Ex-kThplXqhPvJWN1-xa-11" target="Ex-kThplXqhPvJWN1-xa-3" edge="1">
          <mxGeometry relative="1" as="geometry">
            <mxPoint x="230.67000000000007" y="380.005" as="sourcePoint" />
            <mxPoint x="80.00000000000011" y="380.35" as="targetPoint" />
          </mxGeometry>
        </mxCell>
      </root>
    </mxGraphModel>
  </diagram>
  <diagram id="WeUNnHtOikCHdB3eL77T" name="Registro">
    <mxGraphModel dx="1065" dy="456" grid="1" gridSize="10" guides="1" tooltips="1" connect="1" arrows="1" fold="1" page="1" pageScale="1" pageWidth="1169" pageHeight="827" math="0" shadow="0">
      <root>
        <mxCell id="X6GVI1WEw89z_ILnvoLy-0" />
        <mxCell id="X6GVI1WEw89z_ILnvoLy-1" parent="X6GVI1WEw89z_ILnvoLy-0" />
        <mxCell id="X6GVI1WEw89z_ILnvoLy-2" value="" style="shape=umlLifeline;participant=umlActor;perimeter=lifelinePerimeter;whiteSpace=wrap;html=1;container=1;collapsible=0;recursiveResize=0;verticalAlign=top;spacingTop=36;outlineConnect=0;fillColor=#dae8fc;strokeColor=#6c8ebf;" vertex="1" parent="X6GVI1WEw89z_ILnvoLy-1">
          <mxGeometry x="90" y="80" width="20" height="400" as="geometry" />
        </mxCell>
        <mxCell id="X6GVI1WEw89z_ILnvoLy-3" value="" style="html=1;points=[];perimeter=orthogonalPerimeter;fillColor=#dae8fc;strokeColor=#6c8ebf;" vertex="1" parent="X6GVI1WEw89z_ILnvoLy-2">
          <mxGeometry x="5" y="70" width="10" height="330" as="geometry" />
        </mxCell>
        <mxCell id="X6GVI1WEw89z_ILnvoLy-4" value=": Interfaz" style="shape=umlLifeline;perimeter=lifelinePerimeter;whiteSpace=wrap;html=1;container=1;collapsible=0;recursiveResize=0;outlineConnect=0;fillColor=#dae8fc;strokeColor=#6c8ebf;" vertex="1" parent="X6GVI1WEw89z_ILnvoLy-1">
          <mxGeometry x="240" y="80" width="100" height="400" as="geometry" />
        </mxCell>
        <mxCell id="X6GVI1WEw89z_ILnvoLy-5" value="" style="rounded=0;whiteSpace=wrap;html=1;strokeColor=none;" vertex="1" parent="X6GVI1WEw89z_ILnvoLy-1">
          <mxGeometry x="65" y="120" width="70" height="20" as="geometry" />
        </mxCell>
        <mxCell id="X6GVI1WEw89z_ILnvoLy-6" value="Auditor" style="text;html=1;align=center;verticalAlign=middle;whiteSpace=wrap;rounded=0;" vertex="1" parent="X6GVI1WEw89z_ILnvoLy-1">
          <mxGeometry x="80" y="120" width="40" height="20" as="geometry" />
        </mxCell>
        <mxCell id="X6GVI1WEw89z_ILnvoLy-7" value=": Sistema" style="shape=umlLifeline;perimeter=lifelinePerimeter;whiteSpace=wrap;html=1;container=1;collapsible=0;recursiveResize=0;outlineConnect=0;fillColor=#dae8fc;strokeColor=#6c8ebf;" vertex="1" parent="X6GVI1WEw89z_ILnvoLy-1">
          <mxGeometry x="500" y="80" width="100" height="400" as="geometry" />
        </mxCell>
        <mxCell id="X6GVI1WEw89z_ILnvoLy-8" value="" style="html=1;points=[];perimeter=orthogonalPerimeter;fillColor=#dae8fc;strokeColor=#6c8ebf;" vertex="1" parent="X6GVI1WEw89z_ILnvoLy-7">
          <mxGeometry x="45" y="125" width="10" height="145" as="geometry" />
        </mxCell>
        <mxCell id="X6GVI1WEw89z_ILnvoLy-9" value=": SGBD" style="shape=umlLifeline;perimeter=lifelinePerimeter;whiteSpace=wrap;html=1;container=1;collapsible=0;recursiveResize=0;outlineConnect=0;fillColor=#dae8fc;strokeColor=#6c8ebf;" vertex="1" parent="X6GVI1WEw89z_ILnvoLy-1">
          <mxGeometry x="810" y="80" width="100" height="400" as="geometry" />
        </mxCell>
        <mxCell id="X6GVI1WEw89z_ILnvoLy-10" value="" style="html=1;points=[];perimeter=orthogonalPerimeter;fillColor=#dae8fc;strokeColor=#6c8ebf;" vertex="1" parent="X6GVI1WEw89z_ILnvoLy-9">
          <mxGeometry x="45" y="153.75" width="10" height="106.25" as="geometry" />
        </mxCell>
        <mxCell id="X6GVI1WEw89z_ILnvoLy-11" value="" style="html=1;points=[];perimeter=orthogonalPerimeter;fillColor=#dae8fc;strokeColor=#6c8ebf;" vertex="1" parent="X6GVI1WEw89z_ILnvoLy-1">
          <mxGeometry x="285" y="170" width="10" height="210" as="geometry" />
        </mxCell>
        <mxCell id="X6GVI1WEw89z_ILnvoLy-12" value="1: registro" style="html=1;verticalAlign=bottom;endArrow=block;labelBackgroundColor=none;fontFamily=Verdana;fontSize=8;edgeStyle=elbowEdgeStyle;elbow=vertical;entryX=-0.061;entryY=0.004;entryDx=0;entryDy=0;entryPerimeter=0;fillColor=#dae8fc;strokeColor=#6c8ebf;" edge="1" parent="X6GVI1WEw89z_ILnvoLy-1" target="X6GVI1WEw89z_ILnvoLy-11">
          <mxGeometry relative="1" as="geometry">
            <mxPoint x="106" y="171" as="sourcePoint" />
            <mxPoint x="285" y="180" as="targetPoint" />
            <Array as="points">
              <mxPoint x="170" y="171" />
            </Array>
          </mxGeometry>
        </mxCell>
        <mxCell id="X6GVI1WEw89z_ILnvoLy-13" value="&lt;div style=&quot;font-size: 8px&quot;&gt;1.1: EnviarDatos&lt;/div&gt;&lt;div style=&quot;font-size: 8px&quot;&gt;(firstName, lastName, email, password)&lt;br style=&quot;font-size: 8px&quot;&gt;&lt;/div&gt;" style="html=1;verticalAlign=bottom;endArrow=block;labelBackgroundColor=none;fontFamily=Verdana;fontSize=8;edgeStyle=elbowEdgeStyle;elbow=vertical;entryX=-0.014;entryY=0.01;entryDx=0;entryDy=0;entryPerimeter=0;exitX=0.978;exitY=0.17;exitDx=0;exitDy=0;exitPerimeter=0;fillColor=#dae8fc;strokeColor=#6c8ebf;" edge="1" parent="X6GVI1WEw89z_ILnvoLy-1" source="X6GVI1WEw89z_ILnvoLy-11" target="X6GVI1WEw89z_ILnvoLy-8">
          <mxGeometry relative="1" as="geometry">
            <mxPoint x="240" y="206" as="sourcePoint" />
            <mxPoint x="399" y="204" as="targetPoint" />
          </mxGeometry>
        </mxCell>
        <mxCell id="X6GVI1WEw89z_ILnvoLy-14" value="&lt;div style=&quot;font-size: 8px&quot;&gt;&lt;font style=&quot;font-size: 8px&quot;&gt;1.1.1: comprobarEmailExiste&lt;/font&gt;&lt;/div&gt;&lt;div style=&quot;font-size: 8px&quot;&gt;&lt;font style=&quot;font-size: 8px&quot;&gt;(email):boolean&lt;br style=&quot;font-size: 8px&quot;&gt;&lt;/font&gt;&lt;/div&gt;" style="html=1;verticalAlign=bottom;endArrow=block;labelBackgroundColor=none;fontFamily=Verdana;fontSize=8;edgeStyle=elbowEdgeStyle;elbow=vertical;fillColor=#dae8fc;strokeColor=#6c8ebf;entryX=0.033;entryY=0.018;entryDx=0;entryDy=0;entryPerimeter=0;" edge="1" parent="X6GVI1WEw89z_ILnvoLy-1" target="X6GVI1WEw89z_ILnvoLy-10">
          <mxGeometry relative="1" as="geometry">
            <mxPoint x="554" y="236" as="sourcePoint" />
            <mxPoint x="856" y="245" as="targetPoint" />
            <Array as="points">
              <mxPoint x="710" y="236" />
            </Array>
          </mxGeometry>
        </mxCell>
        <mxCell id="X6GVI1WEw89z_ILnvoLy-15" value="1.1.2: TRUE" style="html=1;verticalAlign=bottom;endArrow=open;dashed=1;endSize=8;fontSize=8;fillColor=#dae8fc;strokeColor=#6c8ebf;" edge="1" parent="X6GVI1WEw89z_ILnvoLy-1" source="X6GVI1WEw89z_ILnvoLy-10">
          <mxGeometry relative="1" as="geometry">
            <mxPoint x="520" y="290" as="sourcePoint" />
            <mxPoint x="557" y="271" as="targetPoint" />
          </mxGeometry>
        </mxCell>
        <mxCell id="X6GVI1WEw89z_ILnvoLy-16" value="1.1.5: RedirectLogin" style="html=1;verticalAlign=bottom;endArrow=open;dashed=1;endSize=8;fontSize=8;exitX=0.067;exitY=0.997;exitDx=0;exitDy=0;exitPerimeter=0;fillColor=#dae8fc;strokeColor=#6c8ebf;entryX=1.045;entryY=0.857;entryDx=0;entryDy=0;entryPerimeter=0;" edge="1" parent="X6GVI1WEw89z_ILnvoLy-1" source="X6GVI1WEw89z_ILnvoLy-8" target="X6GVI1WEw89z_ILnvoLy-11">
          <mxGeometry relative="1" as="geometry">
            <mxPoint x="393.65999999999997" y="320.9775" as="sourcePoint" />
            <mxPoint x="310" y="350" as="targetPoint" />
          </mxGeometry>
        </mxCell>
        <mxCell id="X6GVI1WEw89z_ILnvoLy-17" value="1.1.6: mostrarMensajeExitoRegistro" style="html=1;verticalAlign=bottom;endArrow=open;dashed=1;endSize=8;fontSize=8;entryX=1.1;entryY=0.697;entryDx=0;entryDy=0;entryPerimeter=0;exitX=0.033;exitY=0.995;exitDx=0;exitDy=0;exitPerimeter=0;fillColor=#dae8fc;strokeColor=#6c8ebf;" edge="1" parent="X6GVI1WEw89z_ILnvoLy-1" source="X6GVI1WEw89z_ILnvoLy-11" target="X6GVI1WEw89z_ILnvoLy-3">
          <mxGeometry relative="1" as="geometry">
            <mxPoint x="230.67000000000007" y="380.005" as="sourcePoint" />
            <mxPoint x="80.00000000000011" y="380.35" as="targetPoint" />
          </mxGeometry>
        </mxCell>
        <mxCell id="X6GVI1WEw89z_ILnvoLy-18" value="&lt;div&gt;Un usuario se registra en la aplicación introduciendo su nombre y apellidos, email y contraseña.&lt;/div&gt;&lt;div&gt;El email no puede existir en la base de datos.&lt;br&gt;&lt;/div&gt;" style="shape=note2;boundedLbl=1;whiteSpace=wrap;html=1;size=19;verticalAlign=top;align=center;fontSize=8;fillColor=#dae8fc;strokeColor=#6c8ebf;" vertex="1" parent="X6GVI1WEw89z_ILnvoLy-1">
          <mxGeometry x="800" y="380" width="120" height="100" as="geometry" />
        </mxCell>
        <mxCell id="X6GVI1WEw89z_ILnvoLy-19" value="&lt;div style=&quot;font-size: 8px&quot;&gt;&lt;font style=&quot;font-size: 8px&quot;&gt;1.1.3: guardarUsuario&lt;/font&gt;&lt;/div&gt;&lt;div style=&quot;font-size: 8px&quot;&gt;&lt;font style=&quot;font-size: 8px&quot;&gt;(firstName, lastName, email, password):boolean&lt;br style=&quot;font-size: 8px&quot;&gt;&lt;/font&gt;&lt;/div&gt;" style="html=1;verticalAlign=bottom;endArrow=block;labelBackgroundColor=none;fontFamily=Verdana;fontSize=8;edgeStyle=elbowEdgeStyle;elbow=vertical;exitX=0.5;exitY=0.749;exitDx=0;exitDy=0;exitPerimeter=0;fillColor=#dae8fc;strokeColor=#6c8ebf;" edge="1" parent="X6GVI1WEw89z_ILnvoLy-1">
          <mxGeometry relative="1" as="geometry">
            <mxPoint x="554" y="303.135" as="sourcePoint" />
            <mxPoint x="854" y="303" as="targetPoint" />
            <Array as="points">
              <mxPoint x="844" y="303" />
            </Array>
          </mxGeometry>
        </mxCell>
        <mxCell id="X6GVI1WEw89z_ILnvoLy-20" value="1.1.4: TRUE" style="html=1;verticalAlign=bottom;endArrow=open;dashed=1;endSize=8;fontSize=8;fillColor=#dae8fc;strokeColor=#6c8ebf;entryX=1.219;entryY=0.928;entryDx=0;entryDy=0;entryPerimeter=0;" edge="1" parent="X6GVI1WEw89z_ILnvoLy-1" source="X6GVI1WEw89z_ILnvoLy-9" target="X6GVI1WEw89z_ILnvoLy-8">
          <mxGeometry relative="1" as="geometry">
            <mxPoint x="848" y="340" as="sourcePoint" />
            <mxPoint x="570" y="340" as="targetPoint" />
          </mxGeometry>
        </mxCell>
      </root>
    </mxGraphModel>
  </diagram>
  <diagram name="Registro existe" id="hqnGAMiUlof6wB6l5qKO">
    <mxGraphModel dx="881" dy="377" grid="1" gridSize="10" guides="1" tooltips="1" connect="1" arrows="1" fold="1" page="1" pageScale="1" pageWidth="1169" pageHeight="827" math="0" shadow="0">
      <root>
        <mxCell id="PIUVwkrZFhFEts4CKPZi-0" />
        <mxCell id="PIUVwkrZFhFEts4CKPZi-1" parent="PIUVwkrZFhFEts4CKPZi-0" />
        <mxCell id="PIUVwkrZFhFEts4CKPZi-2" value="" style="shape=umlLifeline;participant=umlActor;perimeter=lifelinePerimeter;whiteSpace=wrap;html=1;container=1;collapsible=0;recursiveResize=0;verticalAlign=top;spacingTop=36;outlineConnect=0;fillColor=#dae8fc;strokeColor=#6c8ebf;" vertex="1" parent="PIUVwkrZFhFEts4CKPZi-1">
          <mxGeometry x="90" y="80" width="20" height="400" as="geometry" />
        </mxCell>
        <mxCell id="PIUVwkrZFhFEts4CKPZi-3" value="" style="html=1;points=[];perimeter=orthogonalPerimeter;fillColor=#dae8fc;strokeColor=#6c8ebf;" vertex="1" parent="PIUVwkrZFhFEts4CKPZi-2">
          <mxGeometry x="5" y="70" width="10" height="330" as="geometry" />
        </mxCell>
        <mxCell id="PIUVwkrZFhFEts4CKPZi-4" value=": Interfaz" style="shape=umlLifeline;perimeter=lifelinePerimeter;whiteSpace=wrap;html=1;container=1;collapsible=0;recursiveResize=0;outlineConnect=0;fillColor=#dae8fc;strokeColor=#6c8ebf;" vertex="1" parent="PIUVwkrZFhFEts4CKPZi-1">
          <mxGeometry x="240" y="80" width="100" height="400" as="geometry" />
        </mxCell>
        <mxCell id="PIUVwkrZFhFEts4CKPZi-5" value="" style="rounded=0;whiteSpace=wrap;html=1;strokeColor=none;" vertex="1" parent="PIUVwkrZFhFEts4CKPZi-1">
          <mxGeometry x="65" y="120" width="70" height="20" as="geometry" />
        </mxCell>
        <mxCell id="PIUVwkrZFhFEts4CKPZi-6" value="Auditor" style="text;html=1;align=center;verticalAlign=middle;whiteSpace=wrap;rounded=0;" vertex="1" parent="PIUVwkrZFhFEts4CKPZi-1">
          <mxGeometry x="80" y="120" width="40" height="20" as="geometry" />
        </mxCell>
        <mxCell id="PIUVwkrZFhFEts4CKPZi-7" value=": Sistema" style="shape=umlLifeline;perimeter=lifelinePerimeter;whiteSpace=wrap;html=1;container=1;collapsible=0;recursiveResize=0;outlineConnect=0;fillColor=#dae8fc;strokeColor=#6c8ebf;" vertex="1" parent="PIUVwkrZFhFEts4CKPZi-1">
          <mxGeometry x="500" y="80" width="100" height="400" as="geometry" />
        </mxCell>
        <mxCell id="PIUVwkrZFhFEts4CKPZi-8" value="" style="html=1;points=[];perimeter=orthogonalPerimeter;fillColor=#dae8fc;strokeColor=#6c8ebf;" vertex="1" parent="PIUVwkrZFhFEts4CKPZi-7">
          <mxGeometry x="45" y="125" width="10" height="145" as="geometry" />
        </mxCell>
        <mxCell id="PIUVwkrZFhFEts4CKPZi-9" value=": SGBD" style="shape=umlLifeline;perimeter=lifelinePerimeter;whiteSpace=wrap;html=1;container=1;collapsible=0;recursiveResize=0;outlineConnect=0;fillColor=#dae8fc;strokeColor=#6c8ebf;" vertex="1" parent="PIUVwkrZFhFEts4CKPZi-1">
          <mxGeometry x="810" y="80" width="100" height="400" as="geometry" />
        </mxCell>
        <mxCell id="PIUVwkrZFhFEts4CKPZi-10" value="" style="html=1;points=[];perimeter=orthogonalPerimeter;fillColor=#dae8fc;strokeColor=#6c8ebf;" vertex="1" parent="PIUVwkrZFhFEts4CKPZi-9">
          <mxGeometry x="45" y="153.75" width="10" height="106.25" as="geometry" />
        </mxCell>
        <mxCell id="PIUVwkrZFhFEts4CKPZi-11" value="" style="html=1;points=[];perimeter=orthogonalPerimeter;fillColor=#dae8fc;strokeColor=#6c8ebf;" vertex="1" parent="PIUVwkrZFhFEts4CKPZi-1">
          <mxGeometry x="285" y="170" width="10" height="210" as="geometry" />
        </mxCell>
        <mxCell id="PIUVwkrZFhFEts4CKPZi-12" value="1: registro" style="html=1;verticalAlign=bottom;endArrow=block;labelBackgroundColor=none;fontFamily=Verdana;fontSize=8;edgeStyle=elbowEdgeStyle;elbow=vertical;entryX=-0.061;entryY=0.004;entryDx=0;entryDy=0;entryPerimeter=0;fillColor=#dae8fc;strokeColor=#6c8ebf;" edge="1" parent="PIUVwkrZFhFEts4CKPZi-1" target="PIUVwkrZFhFEts4CKPZi-11">
          <mxGeometry relative="1" as="geometry">
            <mxPoint x="106" y="171" as="sourcePoint" />
            <mxPoint x="285" y="180" as="targetPoint" />
            <Array as="points">
              <mxPoint x="170" y="171" />
            </Array>
          </mxGeometry>
        </mxCell>
        <mxCell id="PIUVwkrZFhFEts4CKPZi-13" value="&lt;div style=&quot;font-size: 8px&quot;&gt;1.1: EnviarDatos&lt;/div&gt;&lt;div style=&quot;font-size: 8px&quot;&gt;(firstName, lastName, email, password)&lt;br style=&quot;font-size: 8px&quot;&gt;&lt;/div&gt;" style="html=1;verticalAlign=bottom;endArrow=block;labelBackgroundColor=none;fontFamily=Verdana;fontSize=8;edgeStyle=elbowEdgeStyle;elbow=vertical;entryX=-0.014;entryY=0.01;entryDx=0;entryDy=0;entryPerimeter=0;exitX=0.978;exitY=0.17;exitDx=0;exitDy=0;exitPerimeter=0;fillColor=#dae8fc;strokeColor=#6c8ebf;" edge="1" parent="PIUVwkrZFhFEts4CKPZi-1" source="PIUVwkrZFhFEts4CKPZi-11" target="PIUVwkrZFhFEts4CKPZi-8">
          <mxGeometry relative="1" as="geometry">
            <mxPoint x="240" y="206" as="sourcePoint" />
            <mxPoint x="399" y="204" as="targetPoint" />
          </mxGeometry>
        </mxCell>
        <mxCell id="PIUVwkrZFhFEts4CKPZi-14" value="&lt;div style=&quot;font-size: 8px&quot;&gt;&lt;font style=&quot;font-size: 8px&quot;&gt;1.1.1: comprobarEmailExiste&lt;/font&gt;&lt;/div&gt;&lt;div style=&quot;font-size: 8px&quot;&gt;&lt;font style=&quot;font-size: 8px&quot;&gt;(email):boolean&lt;br style=&quot;font-size: 8px&quot;&gt;&lt;/font&gt;&lt;/div&gt;" style="html=1;verticalAlign=bottom;endArrow=block;labelBackgroundColor=none;fontFamily=Verdana;fontSize=8;edgeStyle=elbowEdgeStyle;elbow=vertical;fillColor=#dae8fc;strokeColor=#6c8ebf;entryX=0.033;entryY=0.018;entryDx=0;entryDy=0;entryPerimeter=0;" edge="1" parent="PIUVwkrZFhFEts4CKPZi-1" target="PIUVwkrZFhFEts4CKPZi-10">
          <mxGeometry relative="1" as="geometry">
            <mxPoint x="554" y="236" as="sourcePoint" />
            <mxPoint x="856" y="245" as="targetPoint" />
            <Array as="points">
              <mxPoint x="710" y="236" />
            </Array>
          </mxGeometry>
        </mxCell>
        <mxCell id="PIUVwkrZFhFEts4CKPZi-16" value="1.1.3: RedirectRegistroEmailExiste" style="html=1;verticalAlign=bottom;endArrow=open;dashed=1;endSize=8;fontSize=8;exitX=0.067;exitY=0.997;exitDx=0;exitDy=0;exitPerimeter=0;fillColor=#dae8fc;strokeColor=#6c8ebf;" edge="1" parent="PIUVwkrZFhFEts4CKPZi-1" source="PIUVwkrZFhFEts4CKPZi-8">
          <mxGeometry relative="1" as="geometry">
            <mxPoint x="393.65999999999997" y="320.9775" as="sourcePoint" />
            <mxPoint x="296" y="347" as="targetPoint" />
          </mxGeometry>
        </mxCell>
        <mxCell id="PIUVwkrZFhFEts4CKPZi-17" value="1.1.4: mostrarMensajeErrorEmailExiste" style="html=1;verticalAlign=bottom;endArrow=open;dashed=1;endSize=8;fontSize=8;entryX=1.1;entryY=0.697;entryDx=0;entryDy=0;entryPerimeter=0;exitX=0.033;exitY=0.995;exitDx=0;exitDy=0;exitPerimeter=0;fillColor=#dae8fc;strokeColor=#6c8ebf;" edge="1" parent="PIUVwkrZFhFEts4CKPZi-1" source="PIUVwkrZFhFEts4CKPZi-11" target="PIUVwkrZFhFEts4CKPZi-3">
          <mxGeometry relative="1" as="geometry">
            <mxPoint x="230.67000000000007" y="380.005" as="sourcePoint" />
            <mxPoint x="80.00000000000011" y="380.35" as="targetPoint" />
          </mxGeometry>
        </mxCell>
        <mxCell id="PIUVwkrZFhFEts4CKPZi-18" value="&lt;div&gt;Un usuario se registra en la aplicación introduciendo su nombre y apellidos, email y contraseña.&lt;/div&gt;&lt;div&gt;El email no puede existir en la base de datos.&lt;br&gt;&lt;/div&gt;" style="shape=note2;boundedLbl=1;whiteSpace=wrap;html=1;size=19;verticalAlign=top;align=center;fontSize=8;fillColor=#dae8fc;strokeColor=#6c8ebf;" vertex="1" parent="PIUVwkrZFhFEts4CKPZi-1">
          <mxGeometry x="800" y="380" width="120" height="100" as="geometry" />
        </mxCell>
        <mxCell id="PIUVwkrZFhFEts4CKPZi-20" value="1.1.2: FALSE" style="html=1;verticalAlign=bottom;endArrow=open;dashed=1;endSize=8;fontSize=8;fillColor=#dae8fc;strokeColor=#6c8ebf;entryX=1.219;entryY=0.928;entryDx=0;entryDy=0;entryPerimeter=0;" edge="1" parent="PIUVwkrZFhFEts4CKPZi-1" source="PIUVwkrZFhFEts4CKPZi-9" target="PIUVwkrZFhFEts4CKPZi-8">
          <mxGeometry relative="1" as="geometry">
            <mxPoint x="848" y="340" as="sourcePoint" />
            <mxPoint x="570" y="340" as="targetPoint" />
          </mxGeometry>
        </mxCell>
      </root>
    </mxGraphModel>
  </diagram>
</mxfile>
